HIERARCHY
ROOT Hips
{
	OFFSET 0.000000 0.000000 0.000000
	CHANNELS 6 Xposition Yposition Zposition Zrotation Yrotation Xrotation 
	JOINT LeftUpLeg_virtual
	{
		OFFSET 0.000000 0.000000 0.000000
		CHANNELS 3 Zrotation Yrotation Xrotation
		JOINT LeftUpLeg
		{
			OFFSET 10.205400 -3.823500 0.155100
			CHANNELS 3 Zrotation Yrotation Xrotation
			JOINT LeftLeg
			{
				OFFSET 0.708757 -12.982077 0.567790
				CHANNELS 3 Zrotation Yrotation Xrotation
				JOINT LeftFoot
				{
					OFFSET -0.708756 -10.717838 -2.184338
					CHANNELS 3 Zrotation Yrotation Xrotation
					JOINT LeftToeBase
					{
						OFFSET 0.108149 -7.191104 7.560241
						CHANNELS 3 Zrotation Yrotation Xrotation
						End Site
						{
							OFFSET 0.000000 0.000000 0.000000
						}
					}
				}
			}
		}
	}
	JOINT RightUpLeg_virtual
	{
		OFFSET 0.000000 0.000000 0.000000
		CHANNELS 3 Zrotation Yrotation Xrotation
		JOINT RightUpLeg
		{
			OFFSET -10.205400 -3.823500 0.005500
			CHANNELS 3 Zrotation Yrotation Xrotation
			JOINT RightLeg
			{
				OFFSET -0.708756 -12.982134 0.610632
				CHANNELS 3 Zrotation Yrotation Xrotation
				JOINT RightFoot
				{
					OFFSET 0.708754 -10.717769 -1.945823
					CHANNELS 3 Zrotation Yrotation Xrotation
					JOINT RightToeBase
					{
						OFFSET -0.108140 -7.191069 7.372968
						CHANNELS 3 Zrotation Yrotation Xrotation
						End Site
						{
							OFFSET 0.000000 0.000000 0.000000
						}
					}
				}
			}
		}
	}
	JOINT Spine_virtual
	{
		OFFSET 0.000000 0.000000 0.000000
		CHANNELS 3 Zrotation Yrotation Xrotation
		JOINT Spine
		{
			OFFSET 0.000000 6.876099 0.125700
			CHANNELS 3 Zrotation Yrotation Xrotation
			JOINT Spine1
			{
				OFFSET 0.000000 8.022060 0.146608
				CHANNELS 3 Zrotation Yrotation Xrotation
				JOINT Spine2
				{
					OFFSET 0.000000 9.168068 0.167552
					CHANNELS 3 Zrotation Yrotation Xrotation
					JOINT Neck_virtual
					{
						OFFSET 0.000000 0.000000 0.000000
						CHANNELS 3 Zrotation Yrotation Xrotation
						JOINT Neck
						{
							OFFSET 0.000000 10.314075 0.188496
							CHANNELS 3 Zrotation Yrotation Xrotation
							JOINT Head
							{
								OFFSET 0.000000 7.643700 -2.377400
								CHANNELS 3 Zrotation Yrotation Xrotation
								End Site
								{
									OFFSET 0.000000 0.000000 0.000000
								}
							}
						}
					}
					JOINT LeftShoulder_virtual
					{
						OFFSET 0.000000 0.000000 0.000000
						CHANNELS 3 Zrotation Yrotation Xrotation
						JOINT LeftShoulder
						{
							OFFSET 4.392200 8.824978 0.174984
							CHANNELS 3 Zrotation Yrotation Xrotation
							JOINT LeftArm
							{
								OFFSET 8.771219 -2.981674 -0.026999
								CHANNELS 3 Zrotation Yrotation Xrotation
								JOINT LeftForeArm
								{
									OFFSET 8.512804 0.000000 -0.000000
									CHANNELS 3 Zrotation Yrotation Xrotation
									JOINT LeftHand
									{
										OFFSET 18.484802 0.000000 -0.000000
										CHANNELS 3 Zrotation Yrotation Xrotation
										End Site
										{
											OFFSET 0.000000 0.000000 0.000000
										}
									}
								}
							}
						}
					}
					JOINT RightShoulder_virtual
					{
						OFFSET 0.000000 0.000000 0.000000
						CHANNELS 3 Zrotation Yrotation Xrotation
						JOINT RightShoulder
						{
							OFFSET -4.392200 8.824993 0.141379
							CHANNELS 3 Zrotation Yrotation Xrotation
							JOINT RightArm
							{
								OFFSET -8.771282 -2.981682 -0.094208
								CHANNELS 3 Zrotation Yrotation Xrotation
								JOINT RightForeArm
								{
									OFFSET -8.494598 0.000000 0.000000
									CHANNELS 3 Zrotation Yrotation Xrotation
									JOINT RightHand
									{
										OFFSET -18.483803 0.000000 0.000001
										CHANNELS 3 Zrotation Yrotation Xrotation
										End Site
										{
											OFFSET 0.000000 0.000000 0.000000
										}
									}
								}
							}
						}
					}
				}
			}
		}
	}
}
MOTION
Frames: 11
Frame Time: 0.033333
1.727966 34.880756 28.914007 -179.918521 -0.260317 179.854850 -1.004456 -3.534413 8.570649 -6.125001 -4.906219 -28.260645 9.915871 8.248657 18.778753 -3.821674 4.411717 7.011213 0.000000 0.000000 0.000000 3.727425 -2.885433 7.271280 2.986017 9.302020 -22.661068 -5.118233 1.349561 22.490394 1.067714 3.847391 -2.264237 0.000000 0.000000 0.000000 1.952117 -0.632067 -3.518062 1.024723 -1.018253 -9.994927 -1.943856 -2.059671 9.125153 -0.002245 -0.026132 0.006081 -2.355024 0.248416 11.169922 0.224712 -1.702307 20.217613 0.000000 0.000000 0.000000 -1.022283 0.916498 8.174224 -15.030188 -8.773576 1.152441 -51.128126 21.378338 5.494985 -2.122629 -34.443770 5.706048 0.000000 0.000000 0.000000 -4.757358 1.979125 7.659118 24.811296 3.972241 4.010291 51.349704 -20.267657 5.323889 -9.230176 35.390267 -5.991389 0.000000 0.000000 0.000000 
1.724227 34.889141 29.012859 -179.916417 -0.435442 179.814606 -1.004459 -3.431422 8.184226 -6.187030 -4.910868 -28.377701 9.872793 8.555709 18.727581 -3.952896 4.325366 7.444162 0.000000 0.000000 0.000000 3.644670 -2.948362 7.068153 3.127537 9.136187 -22.688662 -5.495974 0.844992 23.004352 0.743002 3.565513 -2.974623 0.000000 0.000000 0.000000 2.008202 -0.604361 -3.618919 1.169146 -0.917023 -9.998465 -1.899471 -2.094563 9.167665 0.007026 -0.043530 0.004541 -2.318049 0.242879 11.245587 0.130217 -1.648869 20.391076 0.000000 0.000000 0.000000 -1.037319 0.890989 8.235919 -15.200202 -8.979978 1.249022 -50.637930 20.838062 6.056400 -2.066536 -34.184325 5.885486 0.000000 0.000000 0.000000 -4.717633 1.932046 7.668165 24.848428 3.956828 3.952319 51.295875 -20.567265 5.124947 -9.174283 35.023106 -5.897074 0.000000 0.000000 0.000000 
1.731687 34.900833 29.093885 -179.941088 -0.480659 179.887348 -1.068576 -3.313068 7.801113 -6.057547 -4.926814 -28.496021 9.999171 8.795624 18.954542 -4.102554 4.096630 7.861018 0.000000 0.000000 0.000000 3.688776 -2.654119 6.683829 3.247007 8.989688 -22.600727 -5.713289 0.881033 23.368695 0.758248 3.553250 -3.002683 0.000000 0.000000 0.000000 1.987155 -0.413126 -3.839242 1.369292 -0.763262 -10.137346 -1.831664 -2.118461 9.190969 0.021906 0.003951 0.022767 -2.252782 0.182830 11.341439 -0.015239 -1.562774 20.694736 0.000000 0.000000 0.000000 -0.961163 0.805049 8.304673 -15.420971 -9.119640 1.295144 -49.574630 19.964715 7.438972 -1.890770 -33.795697 6.201118 0.000000 0.000000 0.000000 -4.694779 1.797189 7.667961 24.842627 3.970016 3.999791 51.210358 -20.672210 4.731438 -9.208272 34.493565 -5.921911 0.000000 0.000000 0.000000 
1.759876 34.926971 29.137589 -179.983230 -0.807934 179.926471 -1.211842 -3.307498 7.557376 -5.896195 -4.968889 -28.603714 10.167673 8.968885 19.214963 -4.304837 3.734965 8.351813 0.000000 0.000000 0.000000 3.637624 -2.496706 6.431779 3.448051 8.642304 -22.388240 -5.891035 0.842416 23.406321 0.768428 3.477881 -2.859232 0.000000 0.000000 0.000000 1.905012 -0.366924 -4.002541 1.578063 -0.690139 -10.372396 -1.885795 -2.227477 9.156490 0.027167 -0.038476 0.030666 -2.206788 -0.028205 11.344172 -0.266073 -1.503717 21.009045 0.000000 0.000000 0.000000 -0.844631 0.803273 8.282854 -15.784342 -9.001858 1.384924 -48.013143 18.991129 9.727153 -1.377350 -33.602106 6.449576 0.000000 0.000000 0.000000 -4.583245 1.766530 7.701474 24.884432 4.166121 4.111667 51.038875 -20.509333 4.234258 -9.226639 33.839585 -5.880287 0.000000 0.000000 0.000000 
1.790064 34.963127 29.137627 -179.992587 -0.961895 179.859631 -1.345740 -3.225204 7.538786 -5.839909 -4.735321 -28.724217 10.216620 8.706872 19.341163 -4.329454 3.404619 8.624463 0.000000 0.000000 0.000000 3.524762 -2.303492 6.356441 3.685670 8.330575 -22.113446 -5.931006 0.814410 23.137846 0.853466 3.410805 -2.311704 0.000000 0.000000 0.000000 1.789126 -0.312460 -3.983228 1.691155 -0.555749 -10.661787 -1.781871 -2.324500 9.122384 -0.025870 -0.039759 0.006006 -2.132770 -0.027830 11.328532 -0.419514 -1.389336 21.404677 0.000000 0.000000 0.000000 -0.760134 0.700472 8.213595 -16.008270 -8.696900 1.407983 -45.930205 18.164308 12.584881 -1.000259 -34.052567 7.049730 0.000000 0.000000 0.000000 -4.518171 1.716486 7.763684 25.003960 4.365153 4.244812 50.719445 -20.155432 3.755779 -9.218145 33.093199 -5.870507 0.000000 0.000000 0.000000 
1.819158 35.000637 29.113894 -179.995415 -1.308453 -179.873401 -1.442298 -3.527755 7.468411 -5.805285 -4.346823 -29.031559 10.247931 8.366644 19.459772 -4.269193 3.029150 8.747352 0.000000 0.000000 0.000000 3.450806 -2.353973 6.229810 3.879917 7.943369 -22.052633 -5.913172 0.731907 22.834967 0.975229 3.382140 -1.851911 0.000000 0.000000 0.000000 1.635831 -0.307467 -4.111709 1.765868 -0.441314 -11.191881 -1.754961 -2.481188 9.014507 -0.022688 -0.084826 0.013056 -2.096079 -0.106203 11.341560 -0.522538 -1.286545 21.820074 0.000000 0.000000 0.000000 -0.712403 0.653901 8.188112 -16.067866 -8.162860 1.429231 -43.347778 17.823121 15.912556 -0.538137 -36.192138 7.769745 0.000000 0.000000 0.000000 -4.502337 1.626845 7.932716 25.213193 4.577870 4.362827 50.313045 -19.767828 3.313308 -9.306795 32.438170 -5.799028 0.000000 0.000000 0.000000 
1.849284 35.042454 29.011290 -179.979596 -1.408504 -179.818855 -1.525760 -3.837127 7.698145 -5.805210 -3.922228 -29.184043 10.308224 8.041975 19.763511 -4.104642 2.643763 8.538065 0.000000 0.000000 0.000000 3.373582 -2.535198 6.309350 4.062647 7.787346 -21.881114 -5.770098 0.773048 22.327605 1.161255 3.349429 -1.123404 0.000000 0.000000 0.000000 1.523315 -0.634172 -4.079017 1.778550 -0.166858 -11.685809 -1.716005 -2.415728 8.957341 -0.027664 -0.045952 -0.022503 -2.072778 -0.094661 11.305094 -0.599208 -1.245357 22.339312 0.000000 0.000000 0.000000 -0.679423 0.580000 8.149839 -15.717274 -7.426181 1.424512 -40.154972 18.171863 19.882665 -0.278712 -40.651377 8.846528 0.000000 0.000000 0.000000 -4.444022 1.694200 7.854235 25.566225 4.453056 4.533757 49.778443 -19.548859 2.251625 -9.237595 32.244975 -5.772122 0.000000 0.000000 0.000000 
1.870908 35.083725 28.821297 -179.965335 -1.280495 -179.707536 -1.582892 -4.336875 7.922728 -5.758321 -3.419358 -29.318532 10.440159 7.837359 20.556918 -3.918699 2.255677 7.699924 0.000000 0.000000 0.000000 3.281256 -2.837238 6.334013 4.187522 7.875004 -21.722935 -5.581863 0.862629 21.785968 1.381477 3.286794 -0.323408 0.000000 0.000000 0.000000 1.402093 -0.922624 -4.125440 1.720981 0.056443 -12.197488 -1.655169 -2.389728 8.906369 -0.020468 -0.043257 0.044361 -2.042499 -0.082010 11.265094 -0.593013 -1.277920 23.002866 0.000000 0.000000 0.000000 -0.610763 0.532262 7.998531 -14.759335 -6.449371 1.412167 -36.283222 19.156644 24.490640 -0.373999 -48.171367 10.281894 0.000000 0.000000 0.000000 -4.401802 1.694848 7.699611 25.935021 4.124070 4.453024 49.299414 -19.795708 0.550472 -9.223767 32.882033 -5.872179 0.000000 0.000000 0.000000 
1.893317 35.122654 28.592466 -179.867841 -0.809067 -179.708889 -1.536090 -4.889151 8.235160 -5.712376 -2.891382 -29.353752 10.729425 7.664095 21.710450 -3.730445 2.000708 6.530848 0.000000 0.000000 0.000000 3.278809 -3.324207 6.440363 4.240900 7.951977 -21.458829 -5.278380 1.151071 21.434363 1.620921 3.253473 0.400465 0.000000 0.000000 0.000000 1.316801 -1.382440 -4.046146 1.640228 0.202923 -12.583073 -1.497930 -2.349174 8.764363 -0.086068 -0.073800 0.028228 -1.940328 0.158891 11.180308 -0.434482 -1.292325 23.579326 0.000000 0.000000 0.000000 -0.514786 0.623342 7.849457 -13.084264 -5.082243 1.425774 -32.098880 20.596628 29.596357 -0.895206 -58.134295 12.181259 0.000000 0.000000 0.000000 -4.351933 1.846988 7.645845 26.352338 3.536183 4.209236 49.019636 -20.457740 -2.055320 -9.092863 34.902137 -6.045725 0.000000 0.000000 0.000000 
1.913733 35.172176 28.366880 -179.927482 0.494018 -179.641161 -1.539387 -5.382058 8.633688 -5.734386 -2.525775 -29.220649 10.999813 7.589015 22.513489 -3.343523 2.122122 5.732569 0.000000 0.000000 0.000000 3.304073 -3.680693 6.361344 4.045300 8.233418 -21.467985 -4.842185 1.478890 21.218427 2.018105 3.381476 1.093140 0.000000 0.000000 0.000000 1.156130 -1.607143 -4.044063 1.436647 0.385712 -12.820315 -1.412615 -2.172281 8.757410 0.010781 0.024122 0.090674 -1.788475 0.071943 11.151781 -0.221889 -1.338399 24.117296 0.000000 0.000000 0.000000 -0.334926 0.607875 7.646299 -10.919764 -3.794862 1.279580 -27.768160 21.920464 34.697043 -3.275798 -68.970103 15.855400 0.000000 0.000000 0.000000 -4.272137 1.840963 7.312924 26.665863 2.472318 3.875107 49.206486 -21.286949 -5.268565 -8.982992 38.846960 -6.352362 0.000000 0.000000 0.000000 
1.925057 35.231323 28.274437 -179.992984 2.250037 -179.703425 -1.580052 -5.800038 8.980495 -5.820511 -2.174409 -29.107367 11.214759 7.086130 23.099737 -2.623014 2.726122 5.232948 0.000000 0.000000 0.000000 3.523607 -4.206395 6.307902 3.451162 8.488414 -21.848459 -4.252898 1.818555 21.021750 2.893202 3.721837 1.875351 0.000000 0.000000 0.000000 0.982539 -1.976373 -3.804385 1.260746 0.358555 -12.730629 -1.241968 -2.084846 8.713951 0.004472 -0.005984 0.072875 -1.642468 0.275981 11.115467 -0.067337 -1.395126 24.521393 0.000000 0.000000 0.000000 -0.147938 0.749035 7.478510 -8.537727 -2.341010 1.205708 -24.043323 23.050905 39.608598 -9.879674 -78.850019 23.706929 0.000000 0.000000 0.000000 -4.228106 2.018153 7.028144 26.915627 1.493100 3.268185 49.704922 -21.807378 -8.013927 -9.157034 44.969487 -7.114298 0.000000 0.000000 0.000000 
